<?xml version="1.0" encoding="UTF-8" standalone="no"?>
<!-- Created with Inkscape (http://www.inkscape.org/) -->

<svg
   xmlns:dc="http://purl.org/dc/elements/1.1/"
   xmlns:cc="http://creativecommons.org/ns#"
   xmlns:rdf="http://www.w3.org/1999/02/22-rdf-syntax-ns#"
   xmlns:svg="http://www.w3.org/2000/svg"
   xmlns="http://www.w3.org/2000/svg"
   xmlns:sodipodi="http://sodipodi.sourceforge.net/DTD/sodipodi-0.dtd"
   xmlns:inkscape="http://www.inkscape.org/namespaces/inkscape"
   width="210mm"
   height="297mm"
   viewBox="0 0 210 297"
   version="1.1"
   id="svg8"
   inkscape:version="0.92.4 (5da689c313, 2019-01-14)"
   sodipodi:docname="lock_button.svg">
  <defs
     id="defs2" />
  <sodipodi:namedview
     id="base"
     pagecolor="#ffffff"
     bordercolor="#666666"
     borderopacity="1.0"
     inkscape:pageopacity="0.0"
     inkscape:pageshadow="2"
     inkscape:zoom="2.8"
     inkscape:cx="242.75109"
     inkscape:cy="952.27711"
     inkscape:document-units="mm"
     inkscape:current-layer="g4558"
     showgrid="false"
     inkscape:window-width="1920"
     inkscape:window-height="1001"
     inkscape:window-x="-9"
     inkscape:window-y="-9"
     inkscape:window-maximized="1" />
  <metadata
     id="metadata5">
    <rdf:RDF>
      <cc:Work
         rdf:about="">
        <dc:format>image/svg+xml</dc:format>
        <dc:type
           rdf:resource="http://purl.org/dc/dcmitype/StillImage" />
        <dc:title></dc:title>
      </cc:Work>
    </rdf:RDF>
  </metadata>
  <g
     inkscape:label="Capa 1"
     inkscape:groupmode="layer"
     id="layer1">
    <g
       id="g27"
       transform="translate(11.601848,0.07176809)"
       style="fill:#008080">
      <g
         id="g4558">
        <ellipse
           ry="12.756697"
           rx="10.583333"
           cy="39.053978"
           cx="65.316307"
           id="path4553"
           style="fill:#e6e6e6;fill-opacity:1;stroke-width:0.26458332" />
        <path
           inkscape:connector-curvature="0"
           id="path31"
           d="M 64.058399,58.914356 C 60.13072,55.843527 56.527168,52.376563 54.312323,49.537692 52.770264,47.561163 51.545682,45.458184 51.025337,43.892944 50.49977,42.311992 50.534998,43.039277 50.506429,33.180308 l -0.02597,-8.9602 0.322055,-0.213126 c 0.557681,-0.369056 1.703103,-0.967901 2.667758,-1.394747 5.028113,-2.224865 11.454097,-2.9055 17.587951,-1.862901 3.073551,0.522426 6.470183,1.761826 8.786409,3.206081 l 0.406952,0.25375 -0.0015,8.53934 c -0.0012,6.896701 -0.0225,8.695906 -0.110603,9.353246 -0.546496,4.077401 -4.62286,9.471661 -11.515083,15.237931 -1.538791,1.287405 -3.134967,2.513584 -3.268169,2.510599 -0.05705,-0.0013 -0.641064,-0.422444 -1.297822,-0.935925 z m 7.953494,-11.305927 c 0.512344,-0.312395 0.493749,-0.08842 0.470499,-5.667031 l -0.02103,-5.0451 -0.289541,-0.265316 -0.289542,-0.265315 h -6.513507 -6.513507 l -0.289542,0.265315 -0.289541,0.265316 -0.02103,5.0451 c -0.02325,5.578608 -0.04184,5.354636 0.470499,5.667031 0.240833,0.146844 0.436962,0.151311 6.643118,0.151311 6.206156,0 6.402285,-0.0045 6.643118,-0.151311 z M 62.190674,33.315973 c 0,-1.726929 0.01778,-2.016162 0.147019,-2.391803 0.291063,-0.845991 0.89996,-1.540733 1.650563,-1.883265 1.780822,-0.812664 3.777291,0.03961 4.411601,1.883265 0.12924,0.375641 0.147019,0.664874 0.147019,2.391803 v 1.964489 h 0.968933 0.968933 V 33.27748 c 0,-1.72498 -0.02076,-2.084161 -0.149591,-2.587877 -0.451839,-1.766673 -1.716016,-3.112428 -3.45484,-3.677783 -0.521371,-0.169516 -0.762065,-0.201622 -1.511536,-0.201622 -0.749471,0 -0.990165,0.03211 -1.511536,0.201622 -1.742853,0.566665 -3.001521,1.905323 -3.453652,3.673139 -0.130262,0.50932 -0.150779,0.86209 -0.150779,2.592521 v 2.002982 h 0.968933 0.968933 z"
           style="fill:#00c853;fill-opacity:1;stroke-width:0.07751465"
           inkscape:export-xdpi="479.29999"
           inkscape:export-ydpi="479.29999" />
        <path
           inkscape:connector-curvature="0"
           id="path29"
           d="M 57.849853,59.027325 C 53.904763,55.942649 50.47363,52.670736 48.188659,49.814458 45.782637,46.806862 44.476702,44.186225 44.21001,41.83045 44.16117,41.399015 44.13079,37.904546 44.1304,32.672366 l -6.36e-4,-8.460453 0.561981,-0.348196 c 0.67613,-0.418922 1.669358,-0.919242 2.771148,-1.395915 4.937824,-2.136273 11.633833,-2.758729 17.594304,-1.635554 3.092531,0.582749 5.889254,1.602655 8.198696,2.989892 l 0.639496,0.384133 -0.0013,8.424515 c -8.08e-4,5.055633 -0.0323,8.71899 -0.07876,9.160904 -0.440466,4.189807 -4.421368,9.560156 -11.46958,15.472791 -1.593873,1.337074 -3.213728,2.588974 -3.344251,2.584593 -0.05783,-0.0019 -0.576052,-0.371729 -1.151599,-0.821751 z m 7.805838,-11.418896 c 0.506418,-0.308781 0.48823,-0.10061 0.48823,-5.587762 0,-5.495594 0.02336,-5.233795 -0.494973,-5.5476 C 65.41759,36.332999 65.1411,36.32691 59.012573,36.32691 c -6.128527,0 -6.405017,0.0061 -6.636375,0.146157 -0.518331,0.313805 -0.494973,0.05201 -0.494973,5.5476 0,5.487152 -0.01819,5.278981 0.48823,5.587762 0.240833,0.146844 0.436962,0.151311 6.643118,0.151311 6.206156,0 6.402285,-0.0045 6.643118,-0.151311 z M 55.834472,33.356664 c 0,-1.485974 0.02651,-2.013071 0.116493,-2.316071 0.458929,-1.54538 1.935118,-2.49633 3.526048,-2.271453 0.910184,0.128653 1.706563,0.645645 2.214772,1.437779 0.450311,0.701891 0.498889,1.008588 0.498889,3.149745 v 1.923798 h 0.974254 0.974255 l -0.02698,-2.228546 c -0.02925,-2.415989 -0.03433,-2.449333 -0.525074,-3.445753 -0.676254,-1.373076 -2.038622,-2.410788 -3.58298,-2.729148 -0.753802,-0.155391 -1.229358,-0.155391 -1.98316,0 -1.561384,0.32187 -2.916878,1.363309 -3.614275,2.776883 -0.453058,0.918319 -0.507678,1.303773 -0.508966,3.591804 l -0.0011,2.03476 h 0.968933 0.968933 z"
           style="fill:#00c853;fill-opacity:0;stroke-width:0.07751465" />
        <rect
           style="fill:#00c853;fill-opacity:1;stroke-width:0.29280651"
           id="rect4560"
           width="4.7247024"
           height="5.1499257"
           x="67.347931"
           y="30.313274" />
      </g>
    </g>
  </g>
</svg>
